<svg width="16" height="16" viewBox="0 0 16 16" fill="none" xmlns="http://www.w3.org/2000/svg">
<path d="M10.667 2.66732C11.287 2.66732 11.597 2.66732 11.8513 2.73547C12.5415 2.9204 13.0806 3.4595 13.2655 4.14968C13.3337 4.40401 13.3337 4.714 13.3337 5.33398V11.4673C13.3337 12.5874 13.3337 13.1475 13.1157 13.5753C12.9239 13.9516 12.618 14.2576 12.2416 14.4493C11.8138 14.6673 11.2538 14.6673 10.1337 14.6673H5.86699C4.74689 14.6673 4.18683 14.6673 3.75901 14.4493C3.38269 14.2576 3.07673 13.9516 2.88498 13.5753C2.66699 13.1475 2.66699 12.5874 2.66699 11.4673V5.33398C2.66699 4.714 2.66699 4.40401 2.73514 4.14968C2.92007 3.4595 3.45917 2.9204 4.14935 2.73547C4.40369 2.66732 4.71368 2.66732 5.33366 2.66732M6.00033 9.33398H10.0003M6.40033 4.00065H9.60032C9.97369 4.00065 10.1604 4.00065 10.303 3.92799C10.4284 3.86407 10.5304 3.76209 10.5943 3.63664C10.667 3.49404 10.667 3.30735 10.667 2.93398V2.40065C10.667 2.02728 10.667 1.8406 10.5943 1.69799C10.5304 1.57255 10.4284 1.47056 10.303 1.40665C10.1604 1.33398 9.97369 1.33398 9.60033 1.33398H6.40033C6.02696 1.33398 5.84027 1.33398 5.69767 1.40665C5.57222 1.47056 5.47024 1.57255 5.40632 1.69799C5.33366 1.8406 5.33366 2.02728 5.33366 2.40065V2.93398C5.33366 3.30735 5.33366 3.49404 5.40632 3.63664C5.47024 3.76209 5.57222 3.86407 5.69767 3.92799C5.84027 4.00065 6.02696 4.00065 6.40033 4.00065Z" stroke="white" stroke-linecap="round" stroke-linejoin="round"/>
</svg>
