<svg width="40" height="40" viewBox="0 0 40 40" fill="none" xmlns="http://www.w3.org/2000/svg">
<path d="M16 4H7C5.3457 4 4 5.3457 4 7V16C4 17.6543 5.3457 19 7 19H16C17.6543 19 19 17.6543 19 16V7C19 5.3457 17.6543 4 16 4Z" fill="black"/>
<path d="M33 4H24C22.3457 4 21 5.3457 21 7V16C21 17.6543 22.3457 19 24 19H33C34.6543 19 36 17.6543 36 16V7C36 5.3457 34.6543 4 33 4Z" fill="black"/>
<path d="M33 21H24C22.3457 21 21 22.3457 21 24V33C21 34.6543 22.3457 36 24 36H33C34.6543 36 36 34.6543 36 33V24C36 22.3457 34.6543 21 33 21Z" fill="black"/>
<path d="M16 21H7C5.3457 21 4 22.3457 4 24V33C4 34.6543 5.3457 36 7 36H16C17.6543 36 19 34.6543 19 33V24C19 22.3457 17.6543 21 16 21Z" fill="black"/>
</svg>
