<svg width="16" height="16" viewBox="0 0 16 16" fill="none" xmlns="http://www.w3.org/2000/svg">
<g clip-path="url(#clip0_11422_4048)">
<mask id="mask0_11422_4048" style="mask-type:luminance" maskUnits="userSpaceOnUse" x="0" y="0" width="16" height="17">
<path d="M0 0.00195408H16V16.002H0V0.00195408Z" fill="white"/>
</mask>
<g mask="url(#mask0_11422_4048)">
<path d="M15.375 9.25195C15.375 5.17886 12.0731 1.87695 8 1.87695C3.92691 1.87695 0.625 5.17886 0.625 9.25195C0.625 11.121 1.32059 12.8272 2.46656 14.127H13.5334C14.6794 12.8272 15.375 11.121 15.375 9.25195Z" stroke="white" stroke-width="0.94" stroke-miterlimit="10" stroke-linecap="round" stroke-linejoin="round"/>
<path d="M8.88379 8.36719L11.4454 5.80553" stroke="white" stroke-width="0.94" stroke-miterlimit="10" stroke-linecap="round" stroke-linejoin="round"/>
<path d="M9.25 9.25195C9.25 9.94233 8.69034 10.502 8 10.502C7.30966 10.502 6.75 9.94233 6.75 9.25195C6.75 8.56158 7.30966 8.00195 8 8.00195C8.69034 8.00195 9.25 8.56158 9.25 9.25195Z" stroke="white" stroke-width="0.94" stroke-miterlimit="10" stroke-linecap="round" stroke-linejoin="round"/>
<path d="M14.125 9.25195H15.375" stroke="white" stroke-width="0.94" stroke-miterlimit="10" stroke-linecap="round" stroke-linejoin="round"/>
<path d="M1.875 9.25195H0.625" stroke="white" stroke-width="0.94" stroke-miterlimit="10" stroke-linecap="round" stroke-linejoin="round"/>
<path d="M8 3.12695V1.87695" stroke="white" stroke-width="0.94" stroke-miterlimit="10" stroke-linecap="round" stroke-linejoin="round"/>
<path d="M3.66906 4.91992L2.78516 4.03605" stroke="white" stroke-width="0.94" stroke-miterlimit="10" stroke-linecap="round" stroke-linejoin="round"/>
</g>
</g>
<defs>
<clipPath id="clip0_11422_4048">
<rect width="16" height="16" fill="white"/>
</clipPath>
</defs>
</svg>
