<svg width="16" height="16" viewBox="0 0 16 16" fill="none" xmlns="http://www.w3.org/2000/svg">
<g clip-path="url(#clip0_11422_7119)">
<path fill-rule="evenodd" clip-rule="evenodd" d="M1.40625 0.5H14.5938C15.1094 0.5 15.5312 0.921875 15.5312 1.4375V14.5625C15.5312 15.0781 15.1094 15.5 14.5938 15.5H1.40625C0.890625 15.5 0.46875 15.0781 0.46875 14.5625V1.4375C0.46875 0.921875 0.890625 0.5 1.40625 0.5Z" stroke="white" stroke-width="0.937497" stroke-miterlimit="22.9256" stroke-linecap="round" stroke-linejoin="round"/>
<path d="M12.0312 8.5918C12.0312 9.49355 12.0312 10.9449 12.0312 11.8466C12.0312 12.6606 10.2264 13.3205 8 13.3205C5.77359 13.3205 3.96875 12.6606 3.96875 11.8466C3.96875 10.9449 3.96878 9.49355 3.96878 8.5918" stroke="white" stroke-width="0.937497" stroke-miterlimit="22.9256" stroke-linecap="round" stroke-linejoin="round"/>
<path d="M6.02539 0.59375L7.33789 2.375H14.9941" stroke="white" stroke-width="0.937497" stroke-miterlimit="22.9256" stroke-linecap="round" stroke-linejoin="round"/>
<path d="M12.0312 6.23242C12.0312 7.13417 12.0312 8.03595 12.0312 8.9377C12.0312 9.75173 10.2264 10.4116 8 10.4116C5.77359 10.4116 3.96875 9.7517 3.96875 8.9377C3.96875 8.03595 3.96878 7.13417 3.96878 6.23242" stroke="white" stroke-width="0.937497" stroke-miterlimit="22.9256" stroke-linecap="round" stroke-linejoin="round"/>
<path d="M8 7.51038C10.2264 7.51038 12.0312 6.85047 12.0312 6.03644C12.0312 5.2224 10.2264 4.5625 8 4.5625C5.7736 4.5625 3.96875 5.2224 3.96875 6.03644C3.96875 6.85047 5.7736 7.51038 8 7.51038Z" stroke="white" stroke-width="0.937497" stroke-miterlimit="22.9256" stroke-linecap="round" stroke-linejoin="round"/>
</g>
<defs>
<clipPath id="clip0_11422_7119">
<rect width="16" height="16" fill="white"/>
</clipPath>
</defs>
</svg>
