<svg width="16" height="16" viewBox="0 0 16 16" fill="none" xmlns="http://www.w3.org/2000/svg">
<g clip-path="url(#clip0_11422_7157)">
<path d="M15.375 11.625H12.4763C10.8955 11.625 9.33422 11.3717 7.83397 10.8718C6.84522 10.5423 5.81616 10.375 4.77369 10.375H0.625" stroke="white" stroke-miterlimit="10" stroke-linecap="round" stroke-linejoin="round"/>
<path d="M15.375 9.125H12.4764C11.1673 9.125 9.86688 8.91397 8.625 8.5C7.38312 8.08603 6.08262 7.875 4.77356 7.875H0.625V15.375H15.375V9.125Z" stroke="white" stroke-miterlimit="10" stroke-linecap="round" stroke-linejoin="round"/>
<path d="M3 10.375V12.875" stroke="white" stroke-miterlimit="10" stroke-linecap="round" stroke-linejoin="round"/>
<path d="M5.5 12.875V15.375" stroke="white" stroke-miterlimit="10" stroke-linecap="round" stroke-linejoin="round"/>
<path d="M8 10.9258V12.8747" stroke="white" stroke-miterlimit="10" stroke-linecap="round" stroke-linejoin="round"/>
<path d="M10.5 14.125V15.375" stroke="white" stroke-miterlimit="10" stroke-linecap="round" stroke-linejoin="round"/>
<path d="M13 11.625V12.875" stroke="white" stroke-miterlimit="10" stroke-linecap="round" stroke-linejoin="round"/>
<path d="M5.5 1.875C5.5 1.18463 4.94037 0.625 4.25 0.625C3.55963 0.625 3 1.18463 3 1.875C2.30963 1.875 1.75 2.43463 1.75 3.125C1.75 3.81531 2.30963 4.375 3 4.375H5.5C6.19037 4.375 6.75 3.81531 6.75 3.125C6.75 2.43463 6.19037 1.875 5.5 1.875Z" stroke="white" stroke-miterlimit="10" stroke-linecap="round" stroke-linejoin="round"/>
<path d="M4.25 4.375V7.875" stroke="white" stroke-miterlimit="10" stroke-linecap="round" stroke-linejoin="round"/>
<path d="M13 3.125C13 2.43463 12.4404 1.875 11.75 1.875C11.0596 1.875 10.5 2.43463 10.5 3.125C9.80963 3.125 9.25 3.68463 9.25 4.375C9.25 5.06531 9.80963 5.625 10.5 5.625H13C13.6904 5.625 14.25 5.06531 14.25 4.375C14.25 3.68463 13.6904 3.125 13 3.125Z" stroke="white" stroke-miterlimit="10" stroke-linecap="round" stroke-linejoin="round"/>
<path d="M11.75 5.625V9.125" stroke="white" stroke-miterlimit="10" stroke-linecap="round" stroke-linejoin="round"/>
<path d="M1.75 6.625V7.875" stroke="white" stroke-miterlimit="10" stroke-linecap="round" stroke-linejoin="round"/>
<path d="M14.25 7.875V9.125" stroke="white" stroke-miterlimit="10" stroke-linecap="round" stroke-linejoin="round"/>
</g>
<defs>
<clipPath id="clip0_11422_7157">
<rect width="16" height="16" fill="white"/>
</clipPath>
</defs>
</svg>
