<svg width="40" height="40" viewBox="0 0 40 40" fill="none" xmlns="http://www.w3.org/2000/svg">
<g clip-path="url(#clip0_12326_10781)">
<path d="M35.4568 4.17053C35.1202 3.96261 34.7 3.94359 34.3459 4.12024L25.6855 8.45158L15.8925 4.09848C15.8765 4.09165 15.8582 4.09044 15.841 4.08361C15.797 4.06714 15.7519 4.05341 15.7062 4.0425C15.6607 4.03024 15.6145 4.02067 15.5679 4.0139C15.4751 4.00627 15.3818 4.00627 15.289 4.0139C15.2424 4.02067 15.1962 4.03024 15.1508 4.0425C15.105 4.05341 15.06 4.06714 15.0159 4.08361C14.9988 4.09044 14.9805 4.09158 14.9645 4.09848L4.67881 8.66988C4.26598 8.85329 3.99993 9.2627 4 9.71444V34.857C3.99993 35.4882 4.51153 36 5.14273 36C5.30264 36 5.46074 35.9666 5.60686 35.9016L15.4285 31.5359L25.2501 35.9016C25.2672 35.9084 25.2855 35.9016 25.3026 35.9119C25.5793 36.0357 25.8969 36.0286 26.1677 35.8925C26.186 35.8845 26.2066 35.8925 26.2249 35.8799L35.3676 31.3085C35.755 31.1149 35.9998 30.7188 35.9996 30.2856V5.14304C35.9996 4.74668 35.7942 4.37859 35.4568 4.17053Z" fill="black"/>
</g>
<defs>
<clipPath id="clip0_12326_10781">
<rect width="32" height="32" fill="white" transform="translate(4 4)"/>
</clipPath>
</defs>
</svg>
