<svg width="21" height="21" viewBox="0 0 21 21" fill="none" xmlns="http://www.w3.org/2000/svg">
<path d="M19.372 1.19961C19.1784 1.08006 18.9368 1.06913 18.7332 1.1707L13.7537 3.6611L8.12299 1.15818C8.11379 1.15426 8.10328 1.15356 8.09342 1.14964C8.06809 1.14016 8.04218 1.13227 8.01588 1.126C7.98974 1.11895 7.96317 1.11344 7.93637 1.10956C7.88301 1.10517 7.82938 1.10517 7.77605 1.10956C7.74925 1.11344 7.72269 1.11895 7.69654 1.126C7.67025 1.13227 7.64433 1.14016 7.619 1.14964C7.60914 1.15356 7.59863 1.15422 7.58943 1.15818L1.67545 3.78661C1.43809 3.89207 1.28512 4.12747 1.28516 4.38721V18.8435C1.28512 19.2064 1.57927 19.5007 1.9422 19.5007C2.03414 19.5007 2.12504 19.4815 2.20906 19.4441L5.03263 18.189L7.85621 16.934L13.5034 19.4441C13.5132 19.448 13.5237 19.4441 13.5336 19.45C13.6927 19.5212 13.8753 19.5171 14.031 19.4389C14.0415 19.4343 14.0533 19.4389 14.0638 19.4316L19.3207 16.8032C19.5434 16.6919 19.6842 16.4642 19.684 16.2151V1.75878C19.684 1.53089 19.5659 1.31924 19.372 1.19961Z" stroke="black" stroke-width="1.25" stroke-linejoin="bevel"/>
<path d="M4.28334 18.7777L3.13281 14.0742L9.70638 11.2311L9.92849 7.63281L15.5702 9.01021L16.6304 13.2544L19.5471 15.3167" stroke="black" stroke-width="1.25" stroke-linejoin="bevel"/>
<path d="M14.0391 3.08203V11.5322V19.9823" stroke="black" stroke-width="1.25" stroke-linejoin="bevel"/>
<path d="M7.62891 17.5113V9.08572V0.660156" stroke="black" stroke-width="1.25" stroke-linejoin="bevel"/>
</svg>
