<svg width="16" height="16" viewBox="0 0 16 16" fill="none" xmlns="http://www.w3.org/2000/svg">
<g clip-path="url(#clip0_11422_4072)">
<g clip-path="url(#clip1_11422_4072)">
<mask id="mask0_11422_4072" style="mask-type:luminance" maskUnits="userSpaceOnUse" x="0" y="0" width="16" height="17">
<path d="M0 0.0039072H16V16.0039H0V0.0039072Z" fill="white"/>
</mask>
<g mask="url(#mask0_11422_4072)">
<path d="M5.91709 2.49513L6.7655 0.628907H9.23566L10.0841 2.49513L11.7296 3.44516L13.77 3.24681L15.0051 5.38603L13.8131 7.05388V8.95397L15.0051 10.6218L13.77 12.761L11.7296 12.5627L10.0841 13.5127L9.23566 15.3789H6.7655L5.91709 13.5127L4.27159 12.5627L2.23119 12.761L0.996094 10.6218L2.18809 8.95397V7.05388L0.996094 5.38603L2.23119 3.24681L4.27159 3.44516L5.91709 2.49513Z" stroke="#F8F8F8" stroke-miterlimit="10" stroke-linecap="round" stroke-linejoin="round"/>
<path d="M10.4587 6.77411C10.4587 8.1318 9.35802 9.23242 8.00034 9.23242C6.64265 9.23242 5.54199 8.1318 5.54199 6.77411C5.54199 5.41642 6.64265 4.31577 8.00034 4.31577C9.35802 4.31577 10.4587 5.41642 10.4587 6.77411Z" stroke="#F8F8F8" stroke-miterlimit="10" stroke-linecap="round" stroke-linejoin="round"/>
<path d="M4.32715 12.5937C4.49305 10.7108 6.07421 9.23406 8.00027 9.23406C9.92637 9.23406 11.5075 10.7108 11.6734 12.5938" stroke="#F8F8F8" stroke-miterlimit="10" stroke-linecap="round" stroke-linejoin="round"/>
</g>
</g>
</g>
<defs>
<clipPath id="clip0_11422_4072">
<rect width="16" height="16" fill="white"/>
</clipPath>
<clipPath id="clip1_11422_4072">
<rect width="16" height="16" fill="white" transform="translate(0 0.00195312)"/>
</clipPath>
</defs>
</svg>
