<svg width="624" height="445" viewBox="0 0 624 445" fill="none" xmlns="http://www.w3.org/2000/svg">
<path d="M-20.5 444.5C-20.5 444.5 102.5 401.5 152 352C201.5 302.5 224.5 260 274.5 220.5C324.5 181 378 155.5 429 119C470.3 88.8333 502.1 63.8 531.5 35.5C560.9 7.2 581.5 -10.5 623.5 -22.5" stroke="white" stroke-width="2"/>
<path d="M-20.5 422C-20.5 422 101.2 381.4 149.5 333C197.8 284.6 226 247.5 274.5 208C323 168.5 378 141.5 429 105C470.3 74.8333 502.1 49.8 531.5 21.5C560.9 -6.8 581.5 -24.5 623.5 -36.5" stroke="white" stroke-width="2"/>
<path d="M-20.5 400C-20.5 400 101.2 359.4 149.5 311C197.8 262.6 226 225.5 274.5 186C323 146.5 378 119.5 429 83C470.3 52.8333 502.1 27.8 531.5 -0.5C560.9 -28.8 581.5 -46.5 623.5 -58.5" stroke="white" stroke-width="2"/>
<path d="M-20.5 377C-20.5 377 101.2 336.4 149.5 288C197.8 239.6 226 202.5 274.5 163C323 123.5 378 96.5 429 60C470.3 30.3333 502.1 4.8 531.5 -23.5C560.9 -51.8 581.5 -69.5 623.5 -81.5" stroke="white" stroke-width="2"/>
<path d="M-20.5 355C-20.5 355 101.2 314.4 149.5 266C197.8 217.6 226 180.5 274.5 141C323 101.5 378 74.5 429 38C470.3 8.33333 502.1 -17.2 531.5 -45.5C560.9 -73.8 581.5 -91.5 623.5 -103.5" stroke="white" stroke-width="2"/>
<path d="M-20.5 332C-20.5 332 101.2 291.4 149.5 243C197.8 194.6 226 157.5 274.5 118C323 78.5 378 51.5 429 15C470.3 -12.1667 502.1 -39.2 531.5 -67.5C560.9 -95.8 581.5 -113.5 623.5 -125.5" stroke="white" stroke-width="2"/>
<path d="M-20.5 310C-20.5 310 101.2 269.4 149.5 221C197.8 172.6 226 135.5 274.5 96C323 56.5 378 29.5 429 -7C470.3 -34.1667 502.1 -61.2 531.5 -89.5C560.9 -117.8 581.5 -135.5 623.5 -147.5" stroke="white" stroke-width="2"/>
<path d="M-20.5 287C-20.5 287 101.2 246.4 149.5 198C197.8 149.6 226 112.5 274.5 73C323 33.5 378 6.5 429 -29C470.3 -56.1667 502.1 -83.2 531.5 -111.5C560.9 -139.8 581.5 -157.5 623.5 -169.5" stroke="white" stroke-width="2"/>
<path d="M-20.5 265C-20.5 265 101.2 224.4 149.5 176C197.8 127.6 226 90.5 274.5 51C323 11.5 378 -15.5 429 -51C470.3 -78.1667 502.1 -105.2 531.5 -133.5C560.9 -161.8 581.5 -179.5 623.5 -191.5" stroke="white" stroke-width="2"/>
<path d="M-20.5 242C-20.5 242 101.2 201.4 149.5 153C197.8 104.6 226 67.5 274.5 28C323 -11.5 378 -38.5 429 -74C470.3 -101.167 502.1 -128.2 531.5 -156.5C560.9 -184.8 581.5 -202.5 623.5 -214.5" stroke="white" stroke-width="2"/>
<path d="M-20.5 220C-20.5 220 101.2 179.4 149.5 131C197.8 82.6 226 45.5 274.5 6C323 -33.5 378 -60.5 429 -96C470.3 -123.167 502.1 -150.2 531.5 -178.5C560.9 -206.8 581.5 -224.5 623.5 -236.5" stroke="white" stroke-width="2"/>
<path d="M-20.5 197C-20.5 197 101.2 156.4 149.5 108C197.8 59.6 226 22.5 274.5 -22C323 -61.5 378 -88.5 429 -124C470.3 -151.167 502.1 -178.2 531.5 -206.5C560.9 -234.8 581.5 -252.5 623.5 -264.5" stroke="white" stroke-width="2"/>
<path d="M-20.5 175C-20.5 175 101.2 134.4 149.5 86C197.8 37.6 226 0.5 274.5 -44C323 -83.5 378 -110.5 429 -146C470.3 -173.167 502.1 -200.2 531.5 -228.5C560.9 -256.8 581.5 -274.5 623.5 -286.5" stroke="white" stroke-width="2"/>
<path d="M-20.5 152C-20.5 152 101.2 111.4 149.5 63C197.8 14.6 226 -21.5 274.5 -66C323 -105.5 378 -132.5 429 -168C470.3 -195.167 502.1 -222.2 531.5 -250.5C560.9 -278.8 581.5 -296.5 623.5 -308.5" stroke="white" stroke-width="2"/>
</svg>
