<svg width="22" height="22" viewBox="0 0 22 22" fill="none" xmlns="http://www.w3.org/2000/svg">
<path d="M20.0156 9.16732V6.10197C19.8538 4.78404 19.5186 3.87077 18.8242 3.17642C17.4819 1.83398 15.3212 1.83398 11 1.83398C6.6788 1.83398 4.5182 1.83398 3.17578 3.17642C2.48141 3.87077 2.1462 4.78404 1.98438 6.10197V9.16732" stroke="black" stroke-width="1.24"/>
<path fill-rule="evenodd" clip-rule="evenodd" d="M1.83203 12.8333C1.83203 10.2664 1.83203 8.98298 2.33159 8.00255C2.771 7.14014 3.47217 6.43897 4.33458 5.99956C5.31501 5.5 6.59846 5.5 9.16536 5.5H12.832C15.399 5.5 16.6824 5.5 17.6629 5.99956C18.5253 6.43897 19.2264 7.14014 19.6658 8.00255C20.1654 8.98298 20.1654 10.2664 20.1654 12.8333C20.1654 15.4003 20.1654 16.6837 19.6658 17.6642C19.2264 18.5266 18.5253 19.2277 17.6629 19.6671C16.6824 20.1667 15.399 20.1667 12.832 20.1667H9.16536C6.59846 20.1667 5.31501 20.1667 4.33458 19.6671C3.47217 19.2277 2.771 18.5266 2.33159 17.6642C1.83203 16.6837 1.83203 15.4003 1.83203 12.8333Z" stroke="black" stroke-width="1.24"/>
<path d="M11.0021 15.5715V10.2773M11.0021 10.2773L8.76172 12.3715M11.0021 10.2773L13.0962 12.3715" stroke="black" stroke-width="1.24" stroke-linecap="round"/>
</svg>
