<svg width="38" height="38" viewBox="0 0 38 38" fill="none" xmlns="http://www.w3.org/2000/svg">
<path d="M32.5128 5.48476C30.1942 3.16602 26.4621 3.16602 18.9982 3.16602C11.5343 3.16602 7.80238 3.16602 5.48366 5.48476C4.2843 6.6841 3.7053 8.26156 3.42578 10.538C4.26601 9.60277 5.27559 8.82371 6.40926 8.24608C7.6466 7.61561 8.97153 7.35995 10.4385 7.24009C11.8558 7.1243 13.5997 7.12432 15.7321 7.12435H22.2643C24.3968 7.12432 26.1407 7.1243 27.5579 7.24009C29.025 7.35995 30.35 7.61561 31.5872 8.24608C32.7208 8.82371 33.7305 9.60277 34.5706 10.538C34.2912 8.26156 33.7122 6.6841 32.5128 5.48476Z" fill="black"/>
<path fill-rule="evenodd" clip-rule="evenodd" d="M3.16797 22.1667C3.16797 17.7329 3.16797 15.516 4.03084 13.8226C4.78982 12.333 6.00093 11.1219 7.49055 10.3629C9.18402 9.5 11.4009 9.5 15.8346 9.5H22.168C26.6018 9.5 28.8186 9.5 30.5121 10.3629C32.0017 11.1219 33.2128 12.333 33.9717 13.8226C34.8346 15.516 34.8346 17.7329 34.8346 22.1667C34.8346 26.6005 34.8346 28.8173 33.9717 30.5108C33.2128 32.0004 32.0017 33.2115 30.5121 33.9704C28.8186 34.8333 26.6018 34.8333 22.168 34.8333H15.8346C11.4009 34.8333 9.18402 34.8333 7.49055 33.9704C6.00093 33.2115 4.78982 32.0004 4.03084 30.5108C3.16797 28.8173 3.16797 26.6005 3.16797 22.1667ZM19.8409 16.577C19.6183 16.3542 19.3162 16.2292 19.0013 16.2292C18.6864 16.2292 18.3843 16.3542 18.1617 16.577L14.2033 20.5354C13.7395 20.9991 13.7395 21.7509 14.2033 22.2146C14.667 22.6784 15.4189 22.6784 15.8826 22.2146L17.8138 20.2836V26.9167C17.8138 27.5725 18.3455 28.1042 19.0013 28.1042C19.6571 28.1042 20.1888 27.5725 20.1888 26.9167V20.2836L22.12 22.2146C22.5838 22.6784 23.3355 22.6784 23.7993 22.2146C24.263 21.7509 24.263 20.9991 23.7993 20.5354L19.8409 16.577Z" fill="black"/>
</svg>
