<?xml version="1.0" encoding="UTF-8"?>
<svg id="Layer_2" data-name="Layer 2" xmlns="http://www.w3.org/2000/svg" viewBox="0 0 3346.12 885.29">
  <defs>
    <style>
      .cls-1 {
        fill: #532582;
      }
    </style>
  </defs>
  <g id="Layer_1-2" data-name="Layer 1">
    <g>
      <path class="cls-1" d="M881.9,393.24v-112.77l-128.86,128.86c-43.01,43.01-63.83,43.47-72.41,39.91-17.89-7.41-28.57-47.61-28.57-107.55V0h-79.77v341.69c0,59.94-10.68,100.14-28.57,107.55-20,8.28-53.95-21.45-72.41-39.91l-176.95-177.1-56.47,56.46,158.91,158.76c42.31,42.39,63.15,78.36,55.74,96.22-8.28,19.97-53.29,22.96-79.38,22.96H0v79.76h373.16c60.78,0,75.82,14.41,79.38,22.99,7.42,17.91-13.42,53.86-55.73,96.18l-116.34,116.34h112.7l78.13-78.2c43.03-42.97,63.85-43.42,72.44-39.86,17.88,7.41,28.55,47.59,28.55,107.48v10.58h79.77v-10.58c0-59.89,10.67-100.07,28.55-107.48,19.99-8.29,53.97,21.41,72.43,39.85l78.21,78.21h50.65v-62.07l-54.23-54.28c-42.38-42.31-63.26-78.26-55.85-96.17,8.28-20,53.28-22.99,79.37-22.99h30.71v-79.76h-30.71c-60.79,0-75.82-14.38-79.37-22.95-7.4-17.87,13.48-53.84,55.86-96.22l54.22-54.22ZM612.24,718.31c-61.68,0-111.87-50.12-111.87-111.73s50.19-111.88,111.87-111.88,111.74,50.19,111.74,111.88-50.13,111.73-111.74,111.73Z"/>
      <g>
        <path class="cls-1" d="M980.5,406.41c0-117.7,80.38-186.59,198.07-186.59h209.56v86.12h-209.56c-62.01,0-106.21,30.43-111.38,88.99h277.88v80.38h-277.88c5.17,58.56,49.38,88.99,111.38,88.99h209.56v86.12h-209.56c-117.7,0-198.07-68.9-198.07-186.59v-57.41Z"/>
        <path class="cls-1" d="M1436.92,219.82h255.49c129.18,0,215.3,86.12,215.3,215.3s-86.12,215.3-215.3,215.3h-255.49V219.82ZM1692.4,564.3c77.51,0,129.18-51.67,129.18-129.18s-51.67-129.18-129.18-129.18h-169.37v258.36h169.37Z"/>
        <path class="cls-1" d="M2197.63,219.82l183.72,430.6h-94.73l-32.15-75.21h-228.5l-32.15,75.21h-94.73l183.72-430.6h114.83ZM2220.02,494.83l-79.8-187.74-79.8,187.74h159.61Z"/>
        <path class="cls-1" d="M2424.4,219.82h407.63v86.12h-321.51v88.99h278.45v80.38h-278.45v175.11h-86.12V219.82Z"/>
        <path class="cls-1" d="M2866.47,219.82h102.19l130.33,190.04,130.33-190.04h102.19l-189.46,275.01v155.59h-86.12v-155.59l-189.46-275.01Z"/>
      </g>
      <g>
        <path class="cls-1" d="M1168.5,738.1l-62.64,144.71h-33.08l-62.43-144.71h36.18l44.03,103.36,44.65-103.36h33.28Z"/>
        <path class="cls-1" d="M1180.48,738.1h33.49v144.71h-33.49v-144.71Z"/>
        <path class="cls-1" d="M1340.49,882.81l-27.91-40.31h-30.8v40.31h-33.49v-144.71h62.64c38.66,0,62.84,20.05,62.84,52.51,0,21.71-10.96,37.62-29.77,45.69l32.46,46.51h-35.97ZM1309.06,765.39h-27.29v50.44h27.29c20.47,0,30.8-9.51,30.8-25.22s-10.34-25.22-30.8-25.22Z"/>
        <path class="cls-1" d="M1428.14,765.39h-46.31v-27.29h126.1v27.29h-46.31v117.42h-33.49v-117.42Z"/>
        <path class="cls-1" d="M1522.2,819.14v-81.04h33.49v79.8c0,27.5,11.99,38.86,32.25,38.86s32.25-11.37,32.25-38.86v-79.8h33.08v81.04c0,42.59-24.39,66.15-65.53,66.15s-65.53-23.57-65.53-66.15Z"/>
        <path class="cls-1" d="M1778.53,851.8h-67.19l-12.82,31.01h-34.32l64.5-144.71h33.08l64.71,144.71h-35.14l-12.82-31.01ZM1767.99,826.37l-22.95-55.4-22.95,55.4h45.89Z"/>
        <path class="cls-1" d="M1841.58,738.1h33.49v117.42h72.56v27.29h-106.05v-144.71Z"/>
        <path class="cls-1" d="M2024.94,738.1h65.74c47.34,0,79.8,28.53,79.8,72.35s-32.46,72.35-79.8,72.35h-65.74v-144.71ZM2089.03,855.31c28.74,0,47.55-17.16,47.55-44.86s-18.81-44.86-47.55-44.86h-30.6v89.72h30.6Z"/>
        <path class="cls-1" d="M2288.93,851.8h-67.19l-12.82,31.01h-34.32l64.5-144.71h33.08l64.71,144.71h-35.14l-12.82-31.01ZM2278.39,826.37l-22.95-55.4-22.95,55.4h45.89Z"/>
        <path class="cls-1" d="M2374.72,765.39h-46.31v-27.29h126.1v27.29h-46.31v117.42h-33.49v-117.42Z"/>
        <path class="cls-1" d="M2560.57,851.8h-67.19l-12.82,31.01h-34.32l64.5-144.71h33.08l64.71,144.71h-35.14l-12.82-31.01ZM2550.03,826.37l-22.95-55.4-22.95,55.4h45.89Z"/>
        <path class="cls-1" d="M2774.32,882.81l-27.91-40.31h-30.8v40.31h-33.49v-144.71h62.64c38.66,0,62.84,20.05,62.84,52.51,0,21.71-10.96,37.62-29.77,45.69l32.46,46.51h-35.97ZM2742.9,765.39h-27.29v50.44h27.29c20.47,0,30.8-9.51,30.8-25.22s-10.34-25.22-30.8-25.22Z"/>
        <path class="cls-1" d="M2824.96,810.45c0-43,33.49-74.83,79.18-74.83s79.18,31.63,79.18,74.83-33.7,74.83-79.18,74.83-79.18-31.84-79.18-74.83ZM2949.41,810.45c0-27.49-19.43-46.31-45.27-46.31s-45.27,18.81-45.27,46.31,19.43,46.31,45.27,46.31,45.27-18.81,45.27-46.31Z"/>
        <path class="cls-1" d="M2999.44,810.45c0-43,33.49-74.83,79.18-74.83s79.18,31.63,79.18,74.83-33.7,74.83-79.18,74.83-79.18-31.84-79.18-74.83ZM3123.89,810.45c0-27.49-19.43-46.31-45.27-46.31s-45.27,18.81-45.27,46.31,19.43,46.31,45.27,46.31,45.27-18.81,45.27-46.31Z"/>
        <path class="cls-1" d="M3314.69,882.81l-.21-86.83-42.59,71.53h-15.09l-42.38-69.67v84.96h-31.42v-144.71h27.7l54.16,89.93,53.33-89.93h27.49l.41,144.71h-31.42Z"/>
      </g>
    </g>
  </g>
</svg>