<svg width="24" height="24" viewBox="0 0 24 24" fill="none" xmlns="http://www.w3.org/2000/svg">
<path d="M15.8573 10.8007L12.5164 14.1417C12.1271 14.531 11.4959 14.531 11.1066 14.1417L7.76566 10.8007C5.53124 8.56627 5.53124 4.94348 7.76566 2.70906C10.0001 0.474585 13.6229 0.474585 15.8573 2.70906C18.0918 4.94348 18.0918 8.56627 15.8573 10.8007Z" stroke="#4C575F" stroke-width="1.67" stroke-miterlimit="10"/>
<path d="M4.12062 14.8211L2.49521 15.8492C1.8766 16.2404 1.8766 17.1428 2.49521 17.534L9.68242 22.08C10.9841 22.9033 12.6436 22.9033 13.9452 22.08L21.1325 17.534C21.7511 17.1428 21.7511 16.2404 21.1325 15.8492L19.5071 14.8211M6.74829 9.41797L2.49521 12.1081C1.8766 12.4994 1.8766 13.4017 2.49522 13.793L10.2153 18.6759C11.1915 19.2934 12.4361 19.2934 13.4124 18.6759L21.1325 13.793C21.7511 13.4017 21.7511 12.4994 21.1325 12.1081L16.8794 9.41797" stroke="#4C575F" stroke-width="1.67" stroke-miterlimit="10"/>
<path d="M11.8124 9.11328C10.5115 9.11328 9.45312 8.05493 9.45312 6.75405C9.45312 5.45318 10.5115 4.39482 11.8124 4.39482C13.1132 4.39482 14.1716 5.45318 14.1716 6.75405C14.1716 8.05493 13.1132 9.11328 11.8124 9.11328Z" stroke="#4C575F" stroke-width="1.67" stroke-miterlimit="10"/>
</svg>
